# AST/ASF file generated using VICON BodyLanguage
# -----------------------------------------------
:version 1.10
:name VICON
:units
  mass 1.0
  length 0.45
  angle deg
:documentation
   .ast/.asf automatically generated from VICON data using
   VICON BodyBuilder and BodyLanguage model FoxedUp or BRILLIANT.MOD
:root
   order TX TY TZ RX RY RZ
   axis XYZ
   position 0 0 0  
   orientation 0 0 0 
:bonedata
  begin
     id 1 
     name lhipjoint
     direction 0.630082 -0.636569 0.44472 
     length 2.82754 
     axis 0 0 0  XYZ
  end
  begin
     id 2 
     name lfemur
     direction 0.34202 -0.939693 0  
     length 7.26371  
     axis 0 0 20  XYZ
    dof rx ry rz
    limits (-160.0 20.0)
           (-70.0 70.0)
           (-60.0 70.0)
  end
  begin
     id 3 
     name ltibia
     direction 0.34202 -0.939693 0   
     length 7.88616   
     axis 0 0 20   XYZ
    dof rx
    limits (-10.0 170.0)
  end
  begin
     id 4 
     name lfoot
     direction 0.0603448 -0.165796 0.984312   
     length 1.77861   
     axis -90 7.62852e-016 20   XYZ
    dof rx rz
    limits (-45.0 90.0)
           (-70.0 20.0)
  end
  begin
     id 5 
     name ltoes
     direction 1.53577e-011 -4.21876e-011 1   
     length 0.902235   
     axis -90 7.62852e-016 20   XYZ
    dof rx
    limits (-90.0 20.0)
  end
  begin
     id 6 
     name rhipjoint
     direction -0.656778 -0.61817 0.431866   
     length 2.9117  
     axis 0 0 0  XYZ 
  end
  begin
     id 7 
     name rfemur
     direction -0.34202 -0.939693 0   
     length 6.81603   
     axis 0 0 -20   XYZ
    dof rx ry rz
    limits (-160.0 20.0)
           (-70.0 70.0)
           (-70.0 60.0)
  end
  begin
     id 8 
     name rtibia
     direction -0.34202 -0.939693 0   
     length 8.05997   
     axis 0 0 -20   XYZ
    dof rx
    limits (-10.0 170.0)
 end
 begin
     id 9 
     name rfoot
     direction -0.0862404 -0.236944 0.967688   
     length 1.84899  
     axis -90 -7.62852e-016 -20   XYZ
    dof rx rz
    limits (-45.0 90.0)
           (-20.0 70.0)
  end
  begin
     id 10 
     name rtoes
     direction -1.53561e-011 -4.21798e-011 1   
     length 0.931579   
     axis -90 -7.62852e-016 -20   XYZ
    dof rx
    limits (-90.0 20.0)
  end
  begin
     id 11 
     name lowerback
     direction -0.0110203 0.991769 -0.127564   
     length 2.05686   
     axis 0 0 0   XYZ
    dof rx ry rz
    limits (-20.0 45.0)
           (-30.0 30.0)
           (-30.0 30.0)
  end
  begin
     id 12 
     name upperback
     direction 0.0109719 0.99993 -0.00432479   
     length 2.06234   
     axis 0 0 0   XYZ
    dof rx ry rz
    limits (-20.0 45.0)
           (-30.0 30.0)
           (-30.0 30.0)
  end
  begin
     id 13 
     name thorax
     direction 0.0173308 0.998351 0.0547306   
     length 2.09856   
     axis 0 0 0   XYZ
    dof rx ry rz
    limits (-20.0 45.0)
           (-30.0 30.0)
           (-30.0 30.0)
  end
  begin
     id 14 
     name lowerneck
     direction -0.0311736 0.989033 0.144366   
     length 1.98151   
     axis 0 0 0   XYZ
    dof rx ry rz
    limits (-20.0 45.0)
           (-30.0 30.0)
           (-30.0 30.0)
  end
  begin
     id 15 
     name upperneck
     direction 0.0421057 0.975772 -0.214698   
     length 2.01457   
     axis 0 0 0   XYZ
    dof rx ry rz
    limits (-20.0 45.0)
           (-30.0 30.0)
           (-30.0 30.0)
  end
  begin
     id 16
     name head
     direction 0.0136911 0.995958 -0.0887718  
     length 2.03562  
     axis 0 0 0   XYZ
    dof rx ry rz
    limits (-20.0 45.0)
           (-30.0 30.0)
           (-30.0 30.0)
  end
  begin
     id 17 
     name lclavicle
     direction 0.915335 0.396201 0.0720134  
     length 4.16217  
     axis 0 0 0   XYZ
    dof ry rz
    limits (-20.0 10.0)
           (0.0 20.0)
  end
  begin
     id 18 
     name lhumerus
     direction 1 -4.48965e-011 6.383e-018   
     length 4.93042   
     axis -180 -30 -90   XYZ
    dof rx ry rz
    limits (-60.0 90.0)
           (-90.0 90.0)
           (-90.0 90.0)
  end
  begin
     id 19
     name lradius
     direction 1 -4.48972e-011 8.8689e-027   
     length 3.68177   
     axis -180 -30 -90   XYZ
    dof rx
    limits (-10.0 170.0)
  end
  begin
     id 20
     name lwrist
     direction 1 -4.48953e-011 1.17971e-026   
     length 1.84089   
     axis -7.69454e-015 90 90   XYZ
    dof ry
    limits (-180.0 0.0)
 end
  begin
     id 21 
     name lhand
     direction 1 -4.49027e-011 2.35802e-026   
     length 0.721479   
     axis -1.50533e-014 90 90   XYZ
    dof rx rz
    limits (-90.0 90.0)
           (-45.0 45.0)
  end
  begin
     id 22 
     name lfingers
     direction 1 -4.48915e-011 4.72027e-026   
     length 0.581675   
     axis -3.01059e-014 90 90   XYZ
    dof rx
    limits (0.0 90.0)
  end
  begin
     id 23
     name lthumb
     direction 0.707107 -6.34948e-011 0.707107   
     length 0.835172   
     axis -90 45 -5.12164e-014   XYZ
    dof rx rz
    limits (-45.0 45.0)
           (-45.0 45.0)
  end
  begin
     id 24 
     name rclavicle
     direction -0.882781 0.469197 0.0234974   
     length 3.95647  
     axis 0 0 0   XYZ 
    dof ry rz
    limits (-10.0 20.0)
           (-20.0 0.0)
  end
  begin
     id 25 
     name rhumerus
     direction -1 -4.48965e-011 -1.54906e-018  
     length 5.07905   
     axis -180 30 90   XYZ
    dof rx ry rz
    limits (-90.0 60.0)
           (-90.0 90.0)
           (-90.0 90.0)
  end
  begin
     id 26 
     name rradius
     direction -1 -4.48972e-011 5.47489e-027   
     length 3.54394   
     axis -180 30 90   XYZ
    dof rx
    limits (-10.0 170.0)
  end
  begin
     id 27 
     name rwrist
     direction -1 -4.48955e-011 1.17969e-026   
     length 1.77197   
     axis -7.69454e-015 -90 -90   XYZ
    dof ry
    limits (-180.0 0.0)
  end
  begin
     id 28
     name rhand
     direction -1 -4.48982e-011 2.35888e-026   
     length 0.681156   
     axis -1.50533e-014 -90 -90   XYZ
    dof rx rz
    limits (-90.0 90.0)
           (-45.0 45.0)
  end
  begin
     id 29
     name rfingers
     direction -1 -4.48955e-011 4.71877e-026   
     length 0.549165   
     axis -3.01059e-014 -90 -90   XYZ
    dof rx
    limits (0.0 90.0)
  end
  begin
     id 30
     name rthumb
     direction -0.707107 -6.3491e-011 0.707107   
     length 0.788495   
     axis -90 -45 5.12164e-014   XYZ
    dof rx rz
    limits (-45.0 45.0)
           (-45.0 45.0)
  end
:hierarchy
  begin
    root lhipjoint rhipjoint lowerback
    lhipjoint lfemur
    lfemur ltibia
    ltibia lfoot
    lfoot ltoes
    rhipjoint rfemur
    rfemur rtibia
    rtibia rfoot
    rfoot rtoes
    lowerback upperback
    upperback thorax
    thorax lowerneck lclavicle rclavicle
    lowerneck upperneck
    upperneck head
    lclavicle lhumerus
    lhumerus lradius
    lradius lwrist
    lwrist lhand lthumb
    lhand lfingers
    rclavicle rhumerus
    rhumerus rradius
    rradius rwrist
    rwrist rhand rthumb
    rhand rfingers
  end

#!OML:ASF H:\Bending\Project 1\Capture day 1\Session 1\Subject.ASF
:FULLY-SPECIFIED
:DEGREES
282
root -10.0191 18.0076 -16.4743 -170.541 86.7291 -174.257
lowerback 6.39684 -0.00455373 1.25965
upperback -3.44785 0.28956 2.0694
thorax -7.21151 0.153203 1.42441
lowerneck -24.7916 -4.97021 -6.88565
upperneck 34.6916 -4.98675 3.17654
head 17.124 -2.23847 1.60454
rclavicle 9.92681e-015 -5.56597e-015
rhumerus -6.83341 21.5906 -80.3423
rradius 84.237
rwrist -7.03858
rhand -22.6304 -38.4153
rfingers 7.12502
rthumb 3.8 -68.3612
lclavicle 9.92681e-015 -5.56597e-015
lhumerus -4.95535 -35.6642 87.8567
lradius 80.6289
lwrist 33.3618
lhand -50.1678 27.4014
lfingers 7.12502
lthumb -22.7501 56.0801
rfemur 4.65259 -4.73378 14.4955
rtibia -2.38542e-014
rfoot -7.39124 -15.3797
rtoes 4.56096
lfemur -8.50177 -8.24983 -13.3386
ltibia 22.8521
lfoot -19.9418 6.29541
ltoes -5.71416
283
root -10.0296 18.0099 -16.4827 -171.387 86.6908 -175.145
lowerback 6.41743 -0.0318175 1.20893
upperback -3.43022 0.248132 2.07399
thorax -7.20412 0.135213 1.46289
lowerneck -24.8512 -4.93784 -6.87771
upperneck 34.5953 -4.9568 3.21257
head 17.0866 -2.22182 1.6231
rclavicle 3.29237e-016 3.18055e-014
rhumerus -5.51481 21.4246 -80.0129
rradius 82.71
rwrist -7.13623
rhand -22.6463 -38.6759
rfingers 7.12502
rthumb 3.78462 -68.622
lclavicle 3.29237e-016 3.18055e-014
lhumerus -3.4727 -35.5246 87.2854
lradius 79.1685
lwrist 33.6134
lhand -49.9278 27.2528
lfingers 7.12502
lthumb -22.5198 55.9595
rfemur 4.5915 -4.78348 14.4222
rtibia -9.54166e-015
rfoot -7.31514 -15.3795
rtoes 4.37825
lfemur -8.5883 -8.0894 -13.4048
ltibia 22.8184
lfoot -19.7958 6.13662
ltoes -5.72318
284
root -10.0399 18.0125 -16.4918 -172.403 86.6044 -176.216
lowerback 6.42337 -0.102334 1.11171
upperback -3.40568 0.145164 2.09845
thorax -7.17987 0.0897688 1.55597
lowerneck -24.9453 -4.87635 -6.78126
upperneck 34.5145 -4.88034 3.14634
head 17.0547 -2.18986 1.59038
rclavicle 1.41945e-015 7.15625e-015
rhumerus -4.19388 21.3107 -79.7344
rradius 81.1126
rwrist -7.33607
rhand -23.0287 -38.8925
rfingers 7.12502
rthumb 3.41541 -68.8449
lclavicle 1.41945e-015 7.15625e-015
lhumerus -2.04127 -35.2826 86.7463
lradius 77.7114
lwrist 33.9269
lhand -49.628 27.0662
lfingers 7.12502
lthumb -22.232 55.8075
rfemur 4.52849 -4.88276 14.3321
rtibia 1.27222e-014
rfoot -7.30762 -15.3704
rtoes 4.57904
lfemur -8.70572 -7.9872 -13.4777
ltibia 22.799
lfoot -19.6709 5.97081
ltoes -5.4742
285
root -10.0502 18.0154 -16.5018 -173.517 86.4757 -177.399
lowerback 6.41116 -0.198834 1.00076
upperback -3.3719 0.00625248 2.13465
thorax -7.13408 0.0275429 1.6733
lowerneck -25.0633 -4.80798 -6.64927
upperneck 34.4366 -4.77805 3.00321
head 17.0244 -2.15459 1.52234
rclavicle -1.72073e-015 -1.03368e-014
rhumerus -2.86152 21.2556 -79.4656
rradius 79.4448
rwrist -7.65073
rhand -23.6417 -38.9961
rfingers 7.12502
rthumb 2.82337 -68.9571
lclavicle -1.72073e-015 -1.03368e-014
lhumerus -0.638996 -34.9928 86.2314
lradius 76.2527
lwrist 34.3471
lhand -49.308 26.8643
lfingers 7.12502
lthumb -21.9248 55.642
rfemur 4.45932 -5.02548 14.2287
rtibia -1.74931e-014
rfoot -7.32945 -15.362
rtoes 4.85294
lfemur -8.85326 -7.96221 -13.5599
ltibia 22.7944
lfoot -19.5734 5.84057
ltoes -5.15074
286
root -10.0604 18.0186 -16.5123 -174.541 86.3285 -178.506
lowerback 6.38479 -0.296163 0.913216
upperback -3.33037 -0.131972 2.1711
thorax -7.07124 -0.0356199 1.77726
lowerneck -25.1849 -4.75167 -6.5351
upperneck 34.3433 -4.67325 2.82712
head 16.9869 -2.12624 1.44283
rclavicle -1.08314e-014 1.27222e-014
rhumerus -1.52694 21.2337 -79.1834
rradius 77.7323
rwrist -8.03894
rhand -24.2186 -38.9587
rfingers 7.12502
rthumb 2.26626 -68.9264
lclavicle -1.08314e-014 1.27222e-014
lhumerus 0.754296 -34.7279 85.7256
lradius 74.778
lwrist 34.8638
lhand -49.0327 26.6848
lfingers 7.12502
lthumb -21.6604 55.4932
rfemur 4.37611 -5.18692 14.1257
rtibia -1.27222e-014
rfoot -7.33431 -15.3601
rtoes 4.89639
lfemur -9.02589 -8.00118 -13.6441
ltibia 22.8035
lfoot -19.5004 5.77425
ltoes -4.96154
287
root -10.0706 18.0222 -16.5225 -175.264 86.1937 -179.326
lowerback 6.35519 -0.371742 0.875715
upperback -3.28564 -0.236921 2.19954
thorax -7.0037 -0.0851135 1.8402
lowerneck -25.2905 -4.71518 -6.47009
upperneck 34.2208 -4.58037 2.65821
head 16.9341 -2.10884 1.37226
rclavicle -2.3761e-015 -1.35174e-014
rhumerus -0.215741 21.1968 -78.8906
rradius 76.0258
rwrist -8.42765
rhand -24.4807 -38.8001
rfingers 7.12502
rthumb 2.01314 -68.7703
lclavicle -2.3761e-015 -1.35174e-014
lhumerus 2.1507 -34.5494 85.2159
lradius 73.2714
lwrist 35.4162
lhand -48.8659 26.5598
lfingers 7.12502
lthumb -21.5002 55.3866
rfemur 4.27089 -5.33548 14.0422
rtibia -4.77083e-015
rfoot -7.29297 -15.3635
rtoes 4.57954
lfemur -9.21817 -8.06328 -13.7152
ltibia 22.827
lfoot -19.4414 5.7704
ltoes -5.03584
288
root -10.0811 18.0261 -16.5318 -175.553 86.0959 -179.724
lowerback 6.33753 -0.414225 0.89316
upperback -3.24323 -0.292512 2.21935
thorax -6.94698 -0.113088 1.85714
lowerneck -25.3723 -4.69307 -6.4541
upperneck 34.0685 -4.49883 2.51498
head 16.8646 -2.09906 1.31926
rclavicle 3.88873e-015 1.98785e-014
rhumerus 1.03749 21.0974 -78.6109
rradius 74.3893
rwrist -8.74746
rhand -24.2715 -38.5604
rfingers 7.12502
rthumb 2.21515 -68.5286
lclavicle 3.88873e-015 1.98785e-014
lhumerus 3.55023 -34.4788 84.6996
lradius 71.7284
lwrist 35.9269
lhand -48.8406 26.4991
lfingers 7.12502
lthumb -21.4759 55.3287
rfemur 4.13933 -5.44645 13.9929
rtibia 1.27222e-014
rfoot -7.20604 -15.365
rtoes 4.00599
lfemur -9.4267 -8.09658 -13.7578
ltibia 22.8681
lfoot -19.3845 5.79673
ltoes -5.3594
